<?xml version="1.0" standalone="no"?>
<!DOCTYPE svg PUBLIC "-//W3C//DTD SVG 20010904//EN"
 "http://www.w3.org/TR/2001/REC-SVG-20010904/DTD/svg10.dtd">
<svg version="1.0" xmlns="http://www.w3.org/2000/svg"
 width="512.000000pt" height="512.000000pt" viewBox="0 0 512.000000 512.000000"
 preserveAspectRatio="xMidYMid meet">

<g transform="translate(0.000000,512.000000) scale(0.100000,-0.100000)"
fill="#000000" stroke="none">
<path d="M395 3483 c-222 -14 -279 -23 -318 -49 -25 -16 -46 -42 -59 -72 -19
-41 -20 -58 -14 -158 31 -521 204 -988 465 -1253 217 -222 464 -321 795 -321
329 0 580 90 781 281 128 122 184 222 282 499 30 85 65 170 76 188 27 39 108
82 156 82 46 -1 109 -30 144 -67 19 -20 46 -83 86 -194 102 -288 158 -387 288
-509 213 -202 474 -289 828 -277 181 6 272 25 415 86 436 187 719 690 790
1400 20 203 6 267 -67 315 -54 36 -160 46 -558 53 -422 7 -663 -11 -979 -73
-241 -48 -490 -133 -640 -219 l-79 -45 -230 0 c-208 0 -231 2 -255 19 -72 50
-284 140 -437 185 -210 61 -467 105 -739 126 -116 9 -606 11 -731 3z m-87
-208 c64 -74 -18 -182 -109 -145 -31 13 -59 55 -59 87 2 82 113 120 168 58z
m4621 21 c27 -14 51 -53 51 -82 0 -29 -30 -71 -59 -84 -62 -25 -131 19 -131
84 0 74 72 116 139 82z m-3819 -166 c342 -26 654 -98 888 -205 l81 -38 -5 -61
c-34 -402 -175 -665 -419 -785 -197 -97 -495 -108 -696 -26 -177 72 -328 233
-440 471 -98 208 -124 339 -90 457 26 88 116 167 214 187 61 12 311 12 467 0z
m3425 -18 c100 -45 159 -132 171 -250 8 -76 -21 -188 -85 -334 -175 -392 -414
-568 -768 -568 -382 0 -631 178 -747 532 -24 76 -50 219 -60 334 l-5 61 88 41
c218 100 543 176 862 202 57 4 192 7 299 6 179 -2 199 -4 245 -24z"/>
</g>
</svg>
